<?xml version="1.0" encoding="UTF-8"?>
<svg id="PRINT" xmlns="http://www.w3.org/2000/svg" viewBox="0 0 238.82 80.48">
  <defs>
    <style>
      .cls-1 {
        fill: #746a57;
      }
    </style>
  </defs>
  <g>
    <path class="cls-1" d="m39.99,41.16c1.99-5.9,3.43-11.16,4.53-15.27-5.68.5-11.75,1.75-17.43,2.29-1.96,3.17-3.86,6.41-5.68,9.65-.22,1.06-.5,2.09-.8,3.11-1.3,4.34-1.97,7.3-3.35,8.31-.26.19-.5.3-.71.3-.32,0-.54-.3-.54-.97,0-1.51,1.17-4.95,4.66-10.91.5-1.79,1.08-3.87,1.08-5.79,0-1.1-.19-2.16-.69-3.09-2.85.24-5.57.35-7.8.35-3.22,0-5.44-.26-5.61-.8-.04-.09-.06-.15-.06-.26,0-1.17,4.13-3.2,7.93-3.2,2.16,0,4.21.65,5.33,2.46,1.99-.17,4.08-.37,6.2-.56,4.73-7.6,9.85-14.9,12.98-17.56.11-.11.22-.19.35-.28,1.6-1.25,3.15-2.14,4.45-2.35.22-.04.43-.06.63-.06,2.29,0,3.02,2.4,3.02,5.46,0,4.84-1.81,11.36-2.27,13.13h.71c1.12,0,1.79.09,1.86.3v.04c0,.39-.91.82-3.02,1.34-1.23,4.43-2.92,9.74-5.14,16.04-.02.43-.45.65-.91.65-.56,0-1.17-.3-1.17-.82v-.06c.24-.67,1.23-.82,1.45-1.47Zm-24.06-15.53c-3.43,0-7.19,1.9-7.19,1.99.06.22.93.32,2.38.32,2.05,0,5.29-.19,9.11-.52-1.04-1.34-2.63-1.79-4.3-1.79Zm.6,22.57c0,.09.02.11.04.11.32,0,1.86-2.76,3.3-7.58l.04-.15c-2.51,4.66-3.39,7.08-3.39,7.62Zm5.1-19.44c.5,1.1.65,2.09.65,3.04,0,1.25-.28,2.46-.45,3.8,1.38-2.48,2.83-4.92,4.32-7.34-1.88.13-3.09.22-4.51.5Zm25.81-17.49c0-2.31-.54-3.95-2.07-3.95-.13,0-.26.02-.41.04-1.17.19-2.59,1.01-4.12,2.2-.09.09-.17.15-.3.26-3,2.55-7.9,9.5-12.52,16.89,5.53-.54,11.19-1.23,16.71-1.49.41-1.6,2.72-9.18,2.72-13.95Zm.58,14.34h-.06c-.19,0-.89.04-1.92.13l-.06.24c1.4-.28,2.05-.28,2.05-.37Z"/>
    <path class="cls-1" d="m51.16,28.29c.84-1.79,2.07-2.94,3.11-2.94.45,0,.86.22,1.21.67.8,1.77,4,2.09,6.39,2.09,1.06,0,1.97-.06,2.42-.09.26-.02.45-.22.5-.22.09-.02.17-.04.22-.04.13,0,.17.06.17.13,0,.15-.15.37-.32.41-.11.11-1.75.37-3.67.37-2.35,0-5.14-.39-6.22-1.9-.13-.17-.28-.26-.43-.26-1.53,0-4.36,6.76-4.38,6.78v.04c0,.26-.3.37-.63.37-.39,0-.82-.15-.82-.37,0-.04.02-.06.02-.09l1.84-7.69c.15-.41.5-.56.84-.56.41,0,.82.24.82.63v.04l-1.06,2.61Z"/>
    <path class="cls-1" d="m57.23,19.39c2.53,0,6.22-.15,11.03-.54,2.81-6.56,5.74-11.6,7.1-11.6h.04c.41.15.58.52.58,1.04,0,2.46-4.23,8.34-5.79,10.47,1.9-.13,14.73-1.27,16.89-1.27.15,0,.26,0,.3.02.09.13.13.24.13.35,0,.78-1.79,1.36-1.79,1.36-.09.04-.17.06-.26.06-.3,0-.54-.26-.54-.56,0-.09.02-.17.06-.26,0,0-10.11.43-15.12.84-1.75,2.44-7.28,15.42-7.28,21.44,0,1.77.5,2.96,1.71,3.07.26.02.37.19.37.37,0,.24-.19.5-.43.5-.04,0-.09,0-.13-.02-1.25-.54-1.77-2.16-1.77-4.43,0-5.14,2.68-13.67,5.66-20.77-3.5.02-7.77.17-10.93.17-2.46,0-4.23-.11-4.36-.43-.02-.04-.04-.09-.04-.13,0-.28.48-.39.76-.39h.13c.32,0,.82.13.82.63.67.06,1.64.09,2.85.09Zm17.6-10.37c.13-.39.19-.63.19-.71,0-.02-.02-.04-.02-.04-.32,0-4.17,7.84-4.23,8.03,1.08-1.32,3.52-5.77,4.06-7.28Z"/>
  </g>
  <g>
    <path class="cls-1" d="m66.22,65.22v2.16h-16.74v-23.67h16.23v2.16h-13.73v8.42h12.24v2.13h-12.24v8.79h14.24Z"/>
    <path class="cls-1" d="m82.42,67.38l-5.65-7.44-5.68,7.44h-2.71l7.03-9.13-6.7-8.66h2.71l5.34,6.97,5.34-6.97h2.64l-6.7,8.66,7.1,9.13h-2.74Z"/>
    <path class="cls-1" d="m102.84,50.59c1.35.75,2.41,1.82,3.18,3.2s1.15,2.94,1.15,4.7-.38,3.36-1.15,4.73c-.77,1.38-1.82,2.44-3.16,3.2-1.34.76-2.86,1.13-4.55,1.13-1.44,0-2.75-.3-3.91-.9s-2.11-1.47-2.86-2.62v9.91h-2.4v-24.35h2.3v3.52c.72-1.17,1.67-2.07,2.86-2.71,1.18-.63,2.52-.95,4.01-.95,1.67,0,3.18.38,4.53,1.13Zm-1.32,13.96c1.01-.58,1.81-1.39,2.38-2.45s.86-2.27.86-3.62-.29-2.55-.86-3.6-1.37-1.87-2.38-2.45-2.14-.88-3.38-.88-2.4.29-3.4.88c-1,.59-1.79,1.4-2.37,2.45-.58,1.05-.86,2.25-.86,3.6s.29,2.56.86,3.62c.57,1.06,1.36,1.88,2.37,2.45,1,.58,2.13.86,3.4.86s2.37-.29,3.38-.86Z"/>
    <path class="cls-1" d="m127.56,59.23h-14.88c.14,1.85.85,3.34,2.13,4.48,1.28,1.14,2.91,1.71,4.87,1.71,1.1,0,2.12-.2,3.04-.59.92-.39,1.72-.97,2.4-1.74l1.35,1.56c-.79.95-1.78,1.67-2.96,2.16s-2.49.74-3.91.74c-1.83,0-3.44-.39-4.85-1.17-1.41-.78-2.51-1.85-3.3-3.23-.79-1.38-1.18-2.93-1.18-4.67s.38-3.29,1.13-4.67c.75-1.37,1.79-2.45,3.11-3.21,1.32-.77,2.8-1.15,4.45-1.15s3.12.38,4.43,1.15c1.31.77,2.33,1.83,3.08,3.2.74,1.36,1.12,2.92,1.12,4.68l-.03.74Zm-12.9-6.07c-1.16,1.09-1.82,2.52-1.98,4.28h12.61c-.16-1.76-.82-3.18-1.98-4.28-1.16-1.09-2.61-1.64-4.34-1.64s-3.15.55-4.31,1.64Z"/>
    <path class="cls-1" d="m137.32,50.37c1.12-.61,2.5-.91,4.14-.91v2.33l-.58-.03c-1.87,0-3.34.58-4.4,1.72-1.06,1.15-1.59,2.76-1.59,4.84v9.06h-2.4v-17.79h2.3v3.48c.56-1.2,1.4-2.1,2.52-2.71Z"/>
    <path class="cls-1" d="m145.75,45.2c-.34-.34-.51-.74-.51-1.22s.17-.84.51-1.18c.34-.34.75-.51,1.25-.51s.91.16,1.25.49c.34.33.51.72.51,1.17,0,.5-.17.91-.51,1.25-.34.34-.76.51-1.25.51s-.91-.17-1.25-.51Zm.03,4.4h2.4v17.79h-2.4v-17.79Z"/>
    <path class="cls-1" d="m170.37,59.23h-14.88c.14,1.85.85,3.34,2.13,4.48,1.28,1.14,2.91,1.71,4.87,1.71,1.1,0,2.12-.2,3.04-.59.92-.39,1.72-.97,2.4-1.74l1.35,1.56c-.79.95-1.78,1.67-2.96,2.16s-2.49.74-3.91.74c-1.83,0-3.44-.39-4.85-1.17-1.41-.78-2.51-1.85-3.3-3.23-.79-1.38-1.18-2.93-1.18-4.67s.38-3.29,1.13-4.67c.75-1.37,1.79-2.45,3.11-3.21,1.32-.77,2.8-1.15,4.45-1.15s3.12.38,4.43,1.15c1.31.77,2.33,1.83,3.08,3.2.74,1.36,1.12,2.92,1.12,4.68l-.03.74Zm-12.9-6.07c-1.16,1.09-1.82,2.52-1.98,4.28h12.61c-.16-1.76-.82-3.18-1.98-4.28-1.16-1.09-2.61-1.64-4.34-1.64s-3.15.55-4.31,1.64Z"/>
    <path class="cls-1" d="m189.69,51.4c1.32,1.3,1.98,3.18,1.98,5.66v10.31h-2.4v-10.08c0-1.85-.46-3.26-1.39-4.23-.92-.97-2.24-1.45-3.96-1.45-1.92,0-3.43.57-4.55,1.71-1.12,1.14-1.67,2.71-1.67,4.72v9.33h-2.4v-17.79h2.3v3.28c.65-1.08,1.56-1.92,2.72-2.52,1.16-.6,2.51-.9,4.04-.9,2.23,0,4.01.65,5.33,1.94Z"/>
    <path class="cls-1" d="m200.92,66.4c-1.39-.77-2.47-1.84-3.26-3.23-.79-1.39-1.18-2.95-1.18-4.68s.39-3.29,1.18-4.67c.79-1.37,1.88-2.45,3.26-3.21s2.96-1.15,4.72-1.15c1.53,0,2.9.3,4.11.9,1.21.6,2.16,1.47,2.86,2.62l-1.79,1.22c-.59-.88-1.33-1.54-2.23-1.98-.9-.44-1.88-.66-2.94-.66-1.28,0-2.44.29-3.47.86-1.03.58-1.83,1.39-2.4,2.45-.58,1.06-.86,2.27-.86,3.62s.29,2.59.86,3.63c.57,1.05,1.38,1.86,2.4,2.43s2.18.86,3.47.86c1.06,0,2.04-.21,2.94-.64.9-.43,1.65-1.08,2.23-1.96l1.79,1.22c-.7,1.15-1.66,2.02-2.87,2.62-1.22.6-2.58.9-4.09.9-1.76,0-3.33-.38-4.72-1.15Z"/>
    <path class="cls-1" d="m232.49,59.23h-14.88c.14,1.85.85,3.34,2.13,4.48,1.28,1.14,2.91,1.71,4.87,1.71,1.1,0,2.12-.2,3.04-.59.92-.39,1.72-.97,2.4-1.74l1.35,1.56c-.79.95-1.78,1.67-2.96,2.16s-2.49.74-3.91.74c-1.83,0-3.44-.39-4.85-1.17-1.41-.78-2.51-1.85-3.3-3.23-.79-1.38-1.18-2.93-1.18-4.67s.38-3.29,1.13-4.67c.75-1.37,1.79-2.45,3.11-3.21,1.32-.77,2.8-1.15,4.45-1.15s3.12.38,4.43,1.15c1.31.77,2.33,1.83,3.08,3.2.74,1.36,1.12,2.92,1.12,4.68l-.03.74Zm-12.9-6.07c-1.16,1.09-1.82,2.52-1.98,4.28h12.61c-.16-1.76-.82-3.18-1.98-4.28-1.16-1.09-2.61-1.64-4.34-1.64s-3.15.55-4.31,1.64Z"/>
  </g>
</svg>