<?xml version="1.0" encoding="UTF-8"?>
<svg id="PRINT" xmlns="http://www.w3.org/2000/svg" viewBox="0 0 69.33 60">
  <defs>
    <style>
      .cls-1 {
        fill: #85754d;
      }
    </style>
  </defs>
  <path class="cls-1" d="m8.09,27.69c2.8-2.85,7.46-3.41,8.94-1.05-3.71.3-5.84,2.44-6.34,6.3-.22,1.68-.1,3.36,1.3,4.6-.04-2.77.57-5.31,2.23-7.6-.06.45-.11.81-.15,1.16,1.12-1.21,2.47-1.77,3.96-2.09.41-.09.61,0,.76.43.69,2.03.7,4.07.16,6.13-.04.16-.09.33-.05.55.28-.41.56-.83.84-1.24.04.01.07.03.11.04-.2.62-.36,1.26-.62,1.85-.73,1.68-1.82,3.07-3.14,4.27-.1.09-.25.17-.38.17-2.01,0-4.02,0-6.03,0-.03,0-.06-.02-.16-.06,0-.17,0-.37,0-.57,0-3.73,0-7.46,0-11.2,0-.41-.11-.68-.43-.9-.34-.24-.65-.52-1-.8Z"/>
  <path class="cls-1" d="m27.72,41.21h-7.44c1.91-4.2,1.95-8.36-.23-12.5,3.5.04,4.99,2.27,5.57,5.61,2.16-3.96-.82-7.75-4.2-7.9,1.07-.65,2.19-.64,3.24-1-.41-.09-.82-.17-1.22-.26,2.17-.24,3.83.49,5.74,2.51-.36.3-.72.6-1.09.88-.27.2-.36.43-.36.78.01,3.73,0,7.47,0,11.2,0,.21,0,.41,0,.68Z"/>
  <path class="cls-1" d="m51.56,18.82c.73-.2,1.13.01,1.49.67.96,1.79,2.02,3.53,3.04,5.28.07.12.15.23.27.42.12-.19.23-.32.31-.47,1.01-1.74,2.06-3.46,3.02-5.23.35-.65.76-.87,1.47-.67,0,.15.03.34.03.52,0,3.06,0,6.11.01,9.17,0,.48-.14.63-.58.61-1.14-.04-.95.12-.95-1.03-.01-1.63,0-3.26,0-4.9,0-.18-.02-.37-.03-.55-.04-.01-.08-.03-.12-.04-1.03,1.75-2.06,3.49-3.15,5.33-1.08-1.83-2.1-3.57-3.12-5.31-.05.01-.09.02-.14.03,0,.18,0,.35,0,.53,0,1.81-.01,3.61,0,5.42,0,.43-.14.53-.51.53-1.04,0-1.04.01-1.04-1.09,0-2.88,0-5.76,0-8.65,0-.19,0-.37,0-.56Z"/>
  <path class="cls-1" d="m31.35,18.72c1.83.17,3.62-.28,5.36.36,2.25.84,3.51,3.14,3.15,5.75-.3,2.2-2.26,4.09-4.44,4.22-1.22.07-2.45.05-3.67.04-.13,0-.38-.2-.38-.3-.02-3.32-.02-6.63-.02-10.07Zm1.55,5.17c0,1.09,0,2.18,0,3.28,0,.33.08.48.41.46.57-.02,1.14,0,1.71,0,1.82-.06,3.2-1.52,3.34-3.52.13-1.8-1.1-3.51-2.81-3.8-.72-.12-1.46-.05-2.19-.1-.39-.03-.46.15-.46.52.02,1.06,0,2.12,0,3.17Z"/>
  <path class="cls-1" d="m40.32,29.11c.08-.25.12-.41.19-.56,1.3-3.12,2.61-6.23,3.91-9.35.13-.3.26-.47.61-.45.32.02.52.05.67.42,1.3,3.16,2.63,6.3,3.95,9.45.05.12.09.25.17.48-.55,0-1.05.02-1.54-.01-.1,0-.22-.19-.27-.31-.21-.45-.36-.93-.6-1.37-.09-.17-.33-.35-.51-.35-1.22-.03-2.45-.01-3.67-.02-.29,0-.45.12-.54.41-.11.33-.29.63-.38.96-.16.61-.51.82-1.08.73-.27-.04-.54,0-.9,0Zm6.38-3.57c-.55-1.38-1.06-2.68-1.57-3.97-.04,0-.09,0-.13,0-.52,1.3-1.03,2.6-1.57,3.97h3.27Z"/>
  <path class="cls-1" d="m19.03,26.07c-1.7-2.92-4.25-3.79-7.42-3.28.73-.69,1.59-.95,2.48-.96.66,0,1.13-.26,1.61-.69.95-.85,1.93-1.65,2.94-2.51,1.72,1.46,3.42,2.91,5.06,4.31-.84.43-1.72.78-2.5,1.3-.78.52-1.45,1.22-2.17,1.83Z"/>
  <path class="cls-1" d="m45,34.68c0,.76.3,1.27.83,1.49.55.23,1.18.07,1.61-.41q.3-.33.74-.17c-.38,1-1.4,1.46-2.48,1.12-1.02-.32-1.56-1.51-1.28-2.85.23-1.12,1.21-1.82,2.32-1.64,1,.16,1.63,1.13,1.54,2.47h-3.27Zm2.66-.47c-.05-1.04-.57-1.54-1.41-1.52-.57.02-1.36.76-1.23,1.52h2.64Z"/>
  <path class="cls-1" d="m35.69,34.68c0,.78.3,1.29.83,1.49.6.23,1.15.11,1.57-.38.25-.29.46-.41.78-.21-.43,1.04-1.49,1.49-2.58,1.09-.97-.36-1.48-1.58-1.18-2.86.26-1.12,1.2-1.77,2.3-1.6,1.01.16,1.63,1.11,1.55,2.47h-3.27Zm2.64-.46c-.01-1-.52-1.55-1.35-1.52-.77.03-1.34.71-1.27,1.52h2.61Z"/>
  <path class="cls-1" d="m57.92,34.65c-.02.79.25,1.28.79,1.52.55.24,1.18.11,1.6-.4.23-.27.43-.41.73-.18-.27.94-1.28,1.43-2.37,1.15-1.03-.27-1.63-1.44-1.4-2.73.22-1.23,1.13-1.94,2.3-1.8,1.02.12,1.66,1.07,1.58,2.44h-3.24Zm2.63-.43c-.03-1.03-.55-1.57-1.4-1.52-.74.05-1.29.73-1.2,1.52h2.61Z"/>
  <path class="cls-1" d="m43.61,36.76h-.5c-.01-.24-.03-.48-.03-.71-.02-.75,0-1.49-.06-2.24-.06-.72-.59-1.14-1.26-1.1-.74.04-1.4.65-1.41,1.32-.01.9,0,1.8,0,2.71h-.55v-4.51h.52c.02.21.04.42.04.52.55-.19,1.08-.49,1.63-.54.88-.09,1.51.45,1.59,1.39.09,1.03.02,2.07.02,3.16Z"/>
  <path class="cls-1" d="m35.05,30.65c.14.44.01.61-.4.58-.34-.02-.68,0-1.09,0v5.51h-.64c0-.29,0-.58,0-.87,0-1.35-.02-2.71.01-4.06.01-.51-.15-.64-.58-.59-.3.03-.61,0-.96,0-.01-.2-.03-.37-.04-.58h3.71Z"/>
  <path class="cls-1" d="m54.34,32.24c.16-.02.32-.04.49-.06.05-.4.06-.8.15-1.18.18-.72.94-1.02,1.52-.62.12.08.18.28.32.52-1.19-.23-1.43.03-1.32,1.28h1.08c.16.41.07.58-.3.56-.25-.01-.51,0-.81,0v4.01c-.2.01-.35.02-.59.04,0-.48,0-.92,0-1.36,0-.75,0-1.49,0-2.24,0-.25-.02-.42-.33-.46-.13-.01-.23-.22-.35-.34.04-.05.09-.1.13-.15Z"/>
  <path class="cls-1" d="m49.71,36.76h-.55v-4.52c.16,0,.33-.02.51-.02.03.2.05.36.08.6.58-.55,1.19-.82,1.89-.47.09.05.09.32.15.56-.25-.08-.4-.14-.55-.17-.8-.16-1.47.45-1.52,1.4-.03.67,0,1.35,0,2.03,0,.19,0,.37,0,.6Z"/>
  <path class="cls-1" d="m53.18,36.75h-.51v-4.51c.15-.01.31-.02.51-.04v4.55Z"/>
  <path class="cls-1" d="m37.46,40.71c-.33-.58-.63-1.12-.93-1.66-.04.01-.08.02-.12.03v2.08s-.09,0-.13,0v-2.73l.1-.04c.35.61.7,1.22,1.09,1.9.39-.68.74-1.3,1.1-1.92.03.01.06.02.1.03v2.78s-.07,0-.1,0v-2.12l-.13-.04c-.31.54-.63,1.09-.97,1.68Z"/>
  <path class="cls-1" d="m33.31,38.36c.52.75,1.04,1.51,1.55,2.26.04-.01.08-.02.12-.03v-2.17s.09,0,.13,0v2.95c-.59-.86-1.11-1.61-1.62-2.35-.04,0-.08.01-.12.02v2.16c-.05,0-.11,0-.16,0v-2.77s.06-.04.09-.06Z"/>
  <path class="cls-1" d="m44.66,39.76c.05.34.2.71.14,1.02-.09.45-.51.46-.88.45-.27,0-.55,0-.85,0v-2.86c.51.05,1.07-.21,1.49.27.29.33.19.74-.06,1.09.05,0,.11.02.16.03Zm-1.47.11c.07.43.05,1.03.21,1.08.33.12.75,0,1.12-.11.08-.02.15-.44.08-.59-.3-.58-.83-.29-1.4-.38Zm.06-.77c-.02.34-.05.64.42.61.57-.03.88-.21.85-.6-.04-.53-.44-.49-.8-.53-.4-.05-.53.14-.47.52Z"/>
  <path class="cls-1" d="m39.6,39.8c0-.86.53-1.43,1.3-1.43.73,0,1.26.6,1.26,1.42,0,.85-.53,1.46-1.28,1.46-.75,0-1.29-.6-1.28-1.45Zm2.35,0c0-.7-.48-1.22-1.08-1.21-.62.01-1.06.53-1.05,1.24,0,.71.46,1.22,1.08,1.21.61,0,1.07-.54,1.06-1.23Z"/>
  <path class="cls-1" d="m55.86,40.18c.15.35.29.67.43.99-.03.04-.06.07-.09.11-.4-.5-.54-1.47-1.5-.95-.01.25-.03.55-.05.86-.03,0-.06,0-.09,0v-2.81c.23,0,.47,0,.71,0,.45,0,.85.1,1.03.61.15.42.02.76-.44,1.2Zm-1.17-.19c.5-.01,1.03.23,1.32-.33.11-.2.09-.63-.05-.8-.33-.41-.81-.29-1.27-.23v1.36Z"/>
  <path class="cls-1" d="m53.49,41.3c-.2-.53-.45-.81-1.05-.82-.61-.01-.82.35-1.05.83-.04-.04-.08-.08-.12-.12.37-.94.74-1.87,1.11-2.81.05,0,.1,0,.15,0,.37.93.73,1.87,1.1,2.8-.04.04-.09.08-.13.13Zm-.43-1c-.2-.5-.38-.96-.61-1.54-.23.59-.4,1.04-.59,1.54h1.2Z"/>
  <path class="cls-1" d="m60.15,38.39c.36.93.73,1.86,1.09,2.79-.03.04-.07.08-.1.12-.25-.47-.47-.82-1.08-.82-.61,0-.81.35-1.05.82-.04-.04-.08-.08-.12-.12.37-.93.74-1.87,1.11-2.8l.15.02Zm.51,1.91c-.19-.5-.37-.96-.54-1.41-.04.01-.08.02-.12.04-.17.44-.34.89-.52,1.37h1.19Z"/>
  <path class="cls-1" d="m31.58,38.4h.46c-.22.92-.17,1.83-.04,2.78h-.45c.22-.9.16-1.8.04-2.78Z"/>
  <path class="cls-1" d="m48.71,41.18h-1.22v-2.74s.08-.01.12-.02c.02.13.05.26.06.39,0,.55.02,1.11,0,1.66-.02.42.1.62.52.56.18-.02.36,0,.54,0,0,.05,0,.1,0,.15Z"/>
  <path class="cls-1" d="m57.29,38.42h.6c-.25.92-.24,1.83-.01,2.78h-.53c.29-.54.27-2.37-.06-2.78Z"/>
  <path class="cls-1" d="m46.43,41.2h-.64c.33-.46.32-2.34-.01-2.79h.63c-.24.49-.24,2.33.02,2.79Z"/>
  <path class="cls-1" d="m50.36,38.42c-.35.44-.35,2.3,0,2.78h-.64c.28-.46.28-2.35-.02-2.78h.67Z"/>
  <path class="cls-1" d="m53.41,30.79c-.2.17-.33.35-.43.34-.13-.02-.3-.17-.33-.3-.02-.09.16-.33.25-.34.13,0,.27.15.5.3Z"/>
</svg>