<?xml version="1.0" encoding="UTF-8"?>
<svg id="PRINT" xmlns="http://www.w3.org/2000/svg" viewBox="0 0 69.33 60">
  <defs>
    <style>
      .cls-1 {
        fill: #231f20;
        stroke: #85754d;
        stroke-miterlimit: 10;
        strokeWidth: 2.83px;
      }

      .cls-2 {
        font-family: Gotham-Bold, Gotham;
        font-weight: 700;
      }

      .cls-3, .cls-4 {
        fill: #85754d;
      }

      .cls-4 {
        font-size: 4.4px;
      }

      .cls-5 {
        font-family: Gotham-Thin, Gotham;
        font-weight: 200;
      }
    </style>
  </defs>
  <g>
    <path class="cls-3" d="m44.02,24.38c-.2-.5-.49-.95-.86-1.33-.37-.38-.8-.68-1.3-.9-1.01-.46-2.3-.46-3.32,0-.5.22-.94.53-1.32.92-.37.39-.66.84-.87,1.34-.2.5-.31,1.04-.31,1.63s.1,1.1.31,1.6c.2.5.49.95.86,1.33.37.38.8.68,1.3.9.5.23,1.06.34,1.66.34s1.16-.11,1.66-.34c.5-.22.94-.53,1.32-.92.37-.39.66-.84.87-1.34.2-.5.31-1.04.31-1.63s-.1-1.1-.31-1.6m-4.77,4.01c-.3-.13-.56-.31-.78-.54-.22-.23-.39-.5-.52-.82-.13-.31-.19-.66-.19-1.04,0-.35.06-.69.18-1,.12-.31.29-.58.5-.81.21-.22.47-.41.77-.54.3-.13.61-.2.97-.2s.66.07.96.19c.3.13.56.31.78.54.22.23.39.5.52.82.13.31.19.66.19,1.02v.03c0,.35-.06.69-.18,1-.12.31-.29.58-.5.81-.21.22-.47.41-.77.54-.58.26-1.33.26-1.93,0"/>
    <path class="cls-3" d="m55.01,6.12l-9.91,14.59-9.91-14.59h-1.73v2.1c-.32-.23-.64-.45-.96-.65-.65-.4-1.33-.74-2.04-1.02-.26-.1-.53-.18-.81-.27-1.3-.44-2.68-.69-4.13-.69-7.13,0-12.93,5.8-12.93,12.93s5.8,12.93,12.93,12.93c2.41,0,4.66-.68,6.6-1.83.47-.24.92-.49,1.35-.76v1.94h1.76v-12.76h-9.97v1.66h8.25v7.06s-.03.02-.04.03c-.44.36-.94.71-1.51,1.04-.21.12-.43.23-.64.34-1.69,1.02-3.67,1.62-5.79,1.62-6.22,0-11.26-5.04-11.26-11.26s5.04-11.26,11.26-11.26c2.97,0,5.67,1.16,7.68,3.04.09.08.18.16.26.24v5.8h1.76v-6.97l9.76,14.21h.14l3.93-5.72h5.83v12.95h1.83V6.12h-1.73Zm-.11,9.89h-4.57l4.57-6.65v6.65Z"/>
  </g>
  <text class="cls-4" transform="translate(16.54 39.24)"><tspan class="cls-2"><tspan x="0" y="0">THE GALLERY OF</tspan></tspan><tspan class="cls-2"><tspan x="0" y="5.28">MODERN ART</tspan></tspan><tspan class="cls-5"><tspan x="0" y="10.57">ArtGoMA.com</tspan></tspan></text>
  <line class="cls-1" x1="16.66" y1="54.41" x2="47.36" y2="54.41"/>
</svg>