<?xml version="1.0" encoding="UTF-8"?>
<svg id="PRINT" xmlns="http://www.w3.org/2000/svg" viewBox="0 0 129.34 60">
  <defs>
    <style>
      .cls-1 {
        fill: #736b57;
      }
    </style>
  </defs>
  <path class="cls-1" d="m112.96,22.5l1.24,1.23,1.24-1.23-.45-.62h-1.58l-.45.62Zm1.24,2.71l-2.62-2.6,1.29-1.78h2.65l1.29,1.78-2.62,2.6Z"/>
  <path class="cls-1" d="m25.58,31.97c-1,.98-2.05,1.37-3.33,1.37-2.5,0-4.59-1.51-4.59-4.57s2.08-4.57,4.59-4.57c1.23,0,2.17.35,3.12,1.28l-1.35,1.42c-.51-.45-1.14-.68-1.73-.68-1.44,0-2.49,1.05-2.49,2.56,0,1.65,1.12,2.52,2.45,2.52.68,0,1.37-.19,1.89-.72l1.44,1.4Z"/>
  <path class="cls-1" d="m43.83,26.73c-.61-.58-1.31-.77-2.14-.77-1.02,0-1.58.31-1.58.86s.51.88,1.61.95c1.63.1,3.7.47,3.7,2.77,0,1.52-1.24,2.84-3.71,2.84-1.37,0-2.73-.23-3.99-1.54l1.05-1.52c.61.68,2.01,1.19,2.98,1.21.81.02,1.56-.4,1.56-1.03,0-.6-.49-.84-1.72-.91-1.63-.12-3.57-.72-3.57-2.68s2.07-2.7,3.64-2.7c1.35,0,2.36.26,3.36,1.14l-1.19,1.4Z"/>
  <path class="cls-1" d="m65.38,33.07v-4.52c0-1.31-.72-2.31-2.08-2.31s-2.21,1.1-2.21,2.42v4.41h-2.12v-8.65h1.91l.14,1.17c.87-.86,1.75-1.3,2.84-1.3,2.03,0,3.66,1.52,3.66,4.24v4.54h-2.14Z"/>
  <path class="cls-1" d="m71.04,28.53c0,1.51,1.01,2.4,2.26,2.4s2.24-.91,2.24-2.4-1.02-2.44-2.24-2.44-2.26.93-2.26,2.44m5.1-4.97l1.58,1.19-.96,1.23c.67.75.91,1.61.91,2.56,0,1.07-.4,2.57-1.82,3.22,1.44.72,1.79,1.75,1.79,2.85,0,2.38-1.82,3.85-4.33,3.85s-4.38-1.52-4.38-3.85h2.12c0,1.12,1.03,1.86,2.26,1.86s2.19-.67,2.19-1.86-1.12-1.73-2.19-1.73c-2.7,0-4.38-1.65-4.38-4.34s1.96-4.38,4.38-4.38c.68,0,1.38.09,1.98.49l.86-1.09Z"/>
  <path class="cls-1" d="m81.21,24.43v4.52c0,1.31.72,2.31,2.08,2.31s2.21-1.1,2.21-2.42v-4.41h2.12v8.65h-1.91l-.14-1.17c-.89.87-1.72,1.3-2.92,1.3-2.07,0-3.57-1.56-3.57-4.24v-4.54h2.14Z"/>
  <rect class="cls-1" x="89.51" y="20.83" width="2.12" height="12.24"/>
  <path class="cls-1" d="m106.76,24.43l.16,1c.67-1.07,1.56-1.23,2.43-1.23s1.75.35,2.22.82l-.96,1.86c-.44-.37-.84-.56-1.54-.56-1.12,0-2.15.6-2.15,2.19v4.55h-2.14v-8.63h1.98Z"/>
  <path class="cls-1" d="m28.04,28.79c0,1.63,1.12,2.6,2.53,2.6.5,0,.96-.23,1.35-.56,1.27-1.08,1.25-3.09-.06-4.11-.38-.3-.81-.5-1.28-.5-1.4,0-2.53.95-2.53,2.58m6.14-4.26h2.03l-1.61,4.23s-.44,3.25,2.6,2.69l-1.17,1.68c-1.96.26-2.59-1.32-2.59-1.32-.48,1-2.16,1.49-3.11,1.51-2.53.02-4.4-1.54-4.4-4.54s1.96-4.48,4.45-4.47c1.14,0,2.57.54,3.06,1.38l.75-1.18Z"/>
  <path class="cls-1" d="m48.52,28.7c0,1.63,1.12,2.6,2.53,2.6.5,0,.96-.23,1.35-.56,1.27-1.08,1.25-3.09-.06-4.11-.38-.3-.81-.5-1.28-.5-1.4,0-2.53.95-2.53,2.58m6.14-4.26h2.03l-1.61,4.24s-.41,3.75,2.91,2.63v1.91c-4.04.49-4.08-1.48-4.08-1.48-.48,1-2.16,1.49-3.11,1.51-2.53.02-4.4-1.54-4.4-4.54s1.96-4.48,4.45-4.47c1.14,0,2.57.54,3.06,1.38l.75-1.18Z"/>
  <path class="cls-1" d="m94.77,28.7c0,1.63,1.12,2.6,2.53,2.6.5,0,.96-.23,1.35-.56,1.27-1.08,1.25-3.09-.06-4.11-.38-.3-.81-.5-1.28-.5-1.4,0-2.53.95-2.53,2.58m6.14-4.26h2.03l-1.61,4.24s-.42,3.85,2.88,2.58l.03,1.96c-4.03.49-4.07-1.48-4.07-1.48-.48,1-2.16,1.49-3.11,1.51-2.53.02-4.4-1.54-4.4-4.54s1.96-4.48,4.45-4.47c1.14,0,2.57.54,3.06,1.38l.75-1.18Z"/>
  <polygon class="cls-1" points="21.25 38.2 18.73 38.2 18.73 34.82 21.25 34.82 21.25 35.44 19.36 35.44 19.36 36.21 21.19 36.21 21.19 36.81 19.36 36.81 19.36 37.57 21.25 37.57 21.25 38.2"/>
  <polygon class="cls-1" points="26.75 34.73 27.45 34.73 27.45 34.76 26.3 36.4 27.48 38.09 27.48 38.11 26.77 38.11 25.9 36.84 25.04 38.11 24.33 38.11 24.33 38.09 25.5 36.4 24.36 34.76 24.36 34.73 25.06 34.73 25.9 35.99 26.75 34.73"/>
  <path class="cls-1" d="m33.63,37.69c-.35.34-.8.5-1.28.5-1.25,0-1.78-.86-1.79-1.74,0-.88.57-1.78,1.79-1.78.46,0,.89.17,1.24.52l-.42.41c-.22-.22-.52-.32-.82-.32-.82,0-1.17.61-1.16,1.17,0,.56.33,1.14,1.16,1.14.3,0,.63-.12.85-.34l.43.44Z"/>
  <polygon class="cls-1" points="37.37 34.73 37.37 37.52 39.11 37.52 39.11 38.11 36.73 38.11 36.73 34.73 37.37 34.73"/>
  <path class="cls-1" d="m45.11,34.74v1.94c0,1-.61,1.51-1.46,1.51s-1.5-.49-1.5-1.51v-1.94h.63v1.94c0,.61.35.93.87.93s.83-.35.83-.93v-1.94h.63Z"/>
  <path class="cls-1" d="m50.61,35.55c-.12-.19-.43-.38-.8-.38-.47,0-.7.2-.7.45,0,.29.35.38.75.42.7.09,1.36.27,1.36,1.08,0,.75-.67,1.08-1.42,1.08-.69,0-1.22-.21-1.47-.83l.53-.27c.15.37.54.54.95.54s.78-.14.78-.51c0-.32-.33-.45-.78-.5-.69-.08-1.33-.27-1.33-1.02,0-.69.68-.98,1.31-.98.53,0,1.07.15,1.33.67l-.51.26Z"/>
  <rect class="cls-1" x="54.51" y="34.73" width=".63" height="3.38"/>
  <polygon class="cls-1" points="60.36 38.12 59.7 38.12 58.3 34.73 59.01 34.73 60.03 37.36 61.05 34.73 61.77 34.73 60.36 38.12"/>
  <polygon class="cls-1" points="67.47 38.11 64.94 38.11 64.94 34.73 67.47 34.73 67.47 35.35 65.57 35.35 65.57 36.13 67.4 36.13 67.4 36.72 65.57 36.72 65.57 37.48 67.47 37.48 67.47 38.11"/>
</svg>