<?xml version="1.0" standalone="no"?>
<!DOCTYPE svg PUBLIC "-//W3C//DTD SVG 20010904//EN"
 "http://www.w3.org/TR/2001/REC-SVG-20010904/DTD/svg10.dtd">
<svg version="1.0" xmlns="http://www.w3.org/2000/svg"
 width="300.000000pt" height="92.000000pt" viewBox="0 0 300.000000 92.000000"
 preserveAspectRatio="xMidYMid meet">
<metadata>
Created by potrace 1.10, written by Peter Selinger 2001-2011
</metadata>
<g transform="translate(0.000000,92.000000) scale(0.100000,-0.100000)"
fill="#6b5c24" stroke="none">
<path d="M296 804 c-98 -31 -187 -110 -233 -209 -21 -48 -28 -79 -31 -152 -4
-81 -2 -97 21 -146 14 -30 44 -74 67 -97 45 -45 149 -100 189 -100 l25 0 -28
29 c-45 47 -56 105 -56 292 0 92 5 192 11 221 14 69 53 140 87 161 33 20 13
21 -52 1z"/>
<path d="M600 750 c0 -7 -13 -28 -30 -47 -46 -52 -36 -93 22 -93 38 0 62 38
54 84 -6 33 -46 82 -46 56z"/>
<path d="M985 556 c-59 -27 -118 -88 -135 -141 -20 -60 -9 -146 26 -201 30
-49 94 -97 146 -110 l28 -6 -16 37 c-12 30 -15 72 -12 220 3 163 5 185 22 204
26 28 5 28 -59 -3z"/>
<path d="M1812 555 c-35 -29 -49 -67 -24 -64 9 2 36 -1 60 -5 49 -9 72 3 72
39 0 27 -29 55 -58 55 -11 0 -34 -11 -50 -25z"/>
<path d="M2115 556 c-59 -27 -118 -88 -135 -141 -20 -60 -9 -146 26 -201 30
-49 94 -97 146 -110 l28 -6 -16 37 c-12 30 -15 72 -12 220 3 163 5 185 22 204
26 28 5 28 -59 -3z"/>
<path d="M2783 559 c23 -32 25 -341 2 -395 -20 -48 -3 -34 45 37 53 76 82 96
121 82 l29 -11 0 97 c0 85 -3 102 -23 131 -29 45 -74 69 -138 77 l-52 6 16
-24z"/>
<path d="M1438 552 c10 -10 58 -87 106 -172 98 -170 121 -200 181 -235 37 -22
130 -45 179 -45 18 0 18 2 -6 28 -14 15 -74 110 -132 211 -76 130 -106 192
-103 208 4 23 4 23 -119 23 -119 0 -123 -1 -106 -18z"/>
<path d="M1250 485 c54 -107 49 -232 -12 -316 l-31 -43 30 24 c113 92 125 243
26 349 l-43 46 30 -60z"/>
<path d="M2380 485 c54 -107 49 -232 -12 -316 l-31 -43 30 24 c113 92 125 243
26 349 l-43 46 30 -60z"/>
<path d="M2587 509 c-35 -54 -26 -113 19 -130 48 -17 86 50 47 82 -9 8 -24 27
-34 43 l-17 28 -15 -23z"/>
<path d="M480 430 c18 -18 20 -33 20 -137 0 -84 -4 -126 -15 -146 -30 -58 44
7 90 80 38 58 65 72 99 49 l23 -15 5 81 c4 64 9 84 23 94 16 12 -1 14 -123 14
-142 0 -142 0 -122 -20z"/>
<path d="M2729 356 c-2 -3 -38 -12 -78 -20 -84 -18 -107 -34 -121 -87 -24 -88
32 -149 138 -149 50 0 52 1 41 21 -6 12 -11 57 -12 100 0 67 3 84 22 109 18
26 24 40 10 26z"/>
<path d="M1402 194 c-43 -30 -14 -84 45 -84 23 0 39 9 57 31 34 41 33 54 -6
54 -18 0 -42 4 -53 8 -13 4 -29 1 -43 -9z"/>
<path d="M348 93 c7 -3 16 -2 19 1 4 3 -2 6 -13 5 -11 0 -14 -3 -6 -6z"/>
</g>
</svg>
